<?xml version="1.0" encoding="UTF-8" standalone="no"?>
<svg xmlns="http://www.w3.org/2000/svg" width="60" height="60">
	<defs>
		<clipPath id="circle">
			<circle cx="30" cy="30" r="29"/>
		</clipPath>
	</defs>
	<g>
		<circle cx="30" cy="30" r="29" stroke="none" fill="white" />
		<line stroke="black" stroke-width="0.5" x1="0" x2="60" y1="15" y2="15" clip-path="url(#circle)" />
		<line stroke="black" stroke-width="0.5" x1="0" x2="60" y1="23" y2="23" clip-path="url(#circle)" />
		<line stroke="black" stroke-width="0.5" x1="0" x2="60" y1="31" y2="31" clip-path="url(#circle)" />
		<line stroke="black" stroke-width="0.5" x1="0" x2="60" y1="39" y2="39" clip-path="url(#circle)" />
		<line stroke="black" stroke-width="0.5" x1="0" x2="60" y1="47" y2="47" clip-path="url(#circle)" />
		<path stroke="none" fill="black" d="M 30.765472,1.490566 C 30.855472,1.430566 31.005472,1.460566 31.125472,1.520566 C 31.245472,1.610566 31.695472,2.120566 32.085472,2.630566 C 33.855472,4.970566 35.295472,8.480566 35.655472,11.360566 C 35.865472,12.920566 35.685472,14.630566 35.205472,16.220566 C 34.515472,18.530566 33.285472,20.690566 30.975472,23.660566 C 30.675472,24.050566 30.405472,24.380566 30.375472,24.410566 C 30.345472,24.470566 30.375472,24.560566 30.555472,25.190566 C 31.095472,26.870566 31.935472,29.630566 32.235472,30.680566 L 32.325472,31.090566 L 32.715472,31.090566 C 34.185472,31.190566 35.475472,31.610566 36.675472,32.390566 C 38.505472,33.620566 39.735472,35.590566 40.065472,37.905566 C 40.155472,38.360566 40.185472,39.195566 40.125472,39.645566 C 40.035472,40.670566 39.795472,41.475566 39.375472,42.375566 C 38.535472,44.090566 37.095472,45.435566 35.355472,46.095566 L 35.025472,46.220566 L 35.055472,47.475566 C 35.055472,49.220566 34.995472,51.105566 34.845472,52.095566 C 34.395472,55.160566 32.655472,57.585566 30.375472,58.305566 C 29.805472,58.490566 29.475472,58.515566 28.785472,58.515566 C 28.095472,58.520566 27.765472,58.485566 27.135472,58.305566 C 25.995472,58.040566 25.005472,57.465566 24.195472,56.655566 C 23.205472,55.670566 22.635472,54.490566 22.485472,53.115566 C 22.395472,52.310566 22.545472,51.585566 22.935472,50.985566 C 23.565472,50.000566 24.765472,49.425566 25.935472,49.455566 C 27.435472,49.550566 28.575472,50.775566 28.665472,52.395566 C 28.725472,53.870566 27.735472,55.095566 26.295472,55.365566 C 25.845472,55.425566 25.455472,55.395566 25.005472,55.275566 L 24.795472,55.185566 L 24.885472,55.305566 C 25.275472,55.845566 25.665472,56.235566 26.205472,56.565566 C 27.555472,57.435566 29.265472,57.585566 30.555472,56.925566 C 31.995472,56.205566 33.075472,54.645566 33.525472,52.575566 C 33.675472,51.915566 33.765472,51.075566 33.825472,49.545566 C 33.855472,48.705566 33.855472,46.605566 33.825472,46.545566 C 33.795472,46.545566 33.645472,46.545566 33.465472,46.575566 C 32.805472,46.695566 32.475472,46.695566 31.635472,46.695566 C 30.585472,46.695566 29.925472,46.635566 29.025472,46.395566 C 25.005472,45.405566 21.915472,42.045566 21.225472,37.935566 C 21.105472,37.275566 21.105472,36.945566 21.105472,36.105566 C 21.105472,35.265566 21.105472,34.965566 21.255472,34.185566 C 21.615472,31.905566 22.665472,29.565566 24.555472,26.895566 L 27.345472,23.295566 C 27.885472,22.635566 28.305472,22.095566 28.305472,22.065566 C 28.305472,22.035566 28.215472,21.735566 28.125472,21.375566 C 27.165472,18.165566 26.715472,16.095566 26.535472,13.695566 C 26.415472,12.315566 26.385472,10.605566 26.475472,9.735566 C 26.805472,7.065566 27.855472,4.665566 29.595472,2.655566 C 29.955472,2.235566 30.585472,1.605566 30.765472,1.515566 L 30.765472,1.490566 z M 32.775472,6.225566 C 32.625472,5.925566 32.475472,5.685566 32.475472,5.685566 C 32.445472,5.685566 32.295472,5.775566 32.175472,5.895566 C 29.775472,7.635566 28.305472,10.095566 27.915472,13.005566 C 27.855472,13.545566 27.855472,14.415566 27.885472,14.895566 C 27.975472,16.185566 28.365472,18.015566 28.965472,20.115566 C 29.115472,20.535566 29.205472,20.895566 29.205472,20.925566 C 29.205472,20.955566 30.045472,19.815566 30.435472,19.245566 C 32.325472,16.515566 33.315472,14.175566 33.585472,11.715566 C 33.675472,11.145566 33.705472,9.975566 33.645472,9.345566 C 33.555472,8.115566 33.375472,7.425566 32.775472,6.225566 z M 29.835472,26.925566 C 29.625472,26.205566 29.445472,25.605566 29.415472,25.605566 C 29.415472,25.605566 28.215472,27.075566 27.555472,27.975566 C 24.765472,31.605566 23.535472,34.275566 23.205472,37.275566 C 23.175472,37.485566 23.175472,37.965566 23.175472,38.355566 C 23.175472,39.045566 23.175472,39.105566 23.235472,39.465566 C 23.355472,40.005566 23.505472,40.455566 23.745472,40.935566 C 24.435472,42.315566 25.575472,43.485566 27.165472,44.355566 C 28.125472,44.895566 29.235472,45.255566 30.375472,45.435566 C 31.155472,45.555566 32.415472,45.555566 33.315472,45.405566 C 33.825472,45.345566 33.765472,45.375566 33.735472,45.105566 C 33.495472,41.775566 33.015472,38.775566 32.115472,35.025566 C 32.025472,34.635566 31.935472,34.275566 31.935472,34.245566 C 31.905472,34.215566 31.515472,34.245566 31.125472,34.335566 C 30.225472,34.515566 29.475472,34.905566 28.905472,35.475566 C 28.185472,36.195566 27.825472,37.125566 27.855472,38.115566 C 27.915472,39.075566 28.335472,39.945566 29.085472,40.695566 C 29.445472,41.055566 29.805472,41.325566 30.255472,41.595566 C 30.585472,41.775566 30.615472,41.805566 30.675472,41.925566 C 30.855472,42.345566 30.495472,42.825566 30.075472,42.795566 C 29.895472,42.765566 29.235472,42.435566 28.815472,42.165566 C 28.035472,41.655566 27.435472,41.055566 26.955472,40.335566 C 25.185472,37.635566 25.965472,33.915566 28.665472,32.145566 C 28.965472,31.935566 29.475472,31.665566 29.835472,31.515566 C 30.135472,31.425566 30.855472,31.215566 30.975472,31.215566 C 31.035472,31.215566 31.065472,31.215566 31.065472,31.185566 C 31.095472,31.155566 30.555472,29.265566 29.835472,26.925566 z M 33.615472,34.335566 C 33.435472,34.305566 33.255472,34.275566 33.225472,34.275566 C 33.195472,34.275566 33.225472,34.485566 33.405472,35.295566 C 34.155472,38.475566 34.665472,41.595566 34.905472,44.385566 C 34.965472,45.105566 34.905472,45.075566 35.415472,44.805566 C 36.195472,44.445566 36.855472,43.845566 37.395472,43.035566 C 38.475472,41.415566 38.595472,39.345566 37.695472,37.485566 C 36.885472,35.865566 35.385472,34.695566 33.615472,34.335566 z" />
  </g>
</svg>
