<?xml version="1.0" standalone="no"?>
<!DOCTYPE svg PUBLIC "-//W3C//DTD SVG 20010904//EN"
 "http://www.w3.org/TR/2001/REC-SVG-20010904/DTD/svg10.dtd">
<svg version="1.0" xmlns="http://www.w3.org/2000/svg"
 width="700.000000pt" height="700.000000pt" viewBox="0 0 700.000000 700.000000"
 preserveAspectRatio="xMidYMid meet">
<metadata>
Created by potrace 1.11, written by Peter Selinger 2001-2013
</metadata>
<g transform="translate(0.000000,700.000000) scale(0.100000,-0.100000)"
fill="#000000" stroke="none">
<path d="M3548 6787 c-153 -138 -296 -358 -375 -576 -79 -219 -100 -387 -84
-672 6 -108 14 -210 17 -228 l7 -31 -1246 0 -1246 0 -16 -30 -16 -30 1264 0
1264 0 7 -52 c14 -105 59 -304 117 -519 65 -239 64 -221 16 -281 -13 -17 -98
-18 -1521 -18 l-1506 0 -10 -26 c-6 -14 -10 -27 -10 -30 0 -2 671 -5 1491 -6
l1491 -3 -163 -210 c-188 -243 -283 -383 -369 -547 l-62 -118 -1239 0 -1239 0
0 -30 0 -30 1225 0 c674 0 1225 -2 1225 -4 0 -3 -13 -44 -29 -93 -82 -244 -99
-480 -55 -735 l7 -38 -1108 0 -1107 0 6 -22 c3 -13 6 -26 6 -30 0 -5 500 -9
1111 -10 l1111 -3 32 -80 c171 -431 569 -738 1006 -775 47 -4 -567 -8 -1363
-9 l-1448 -1 18 -30 17 -30 1590 0 1589 0 -6 -207 c-13 -403 -53 -567 -183
-749 -164 -231 -449 -288 -696 -138 -55 34 -141 112 -159 146 -8 15 -5 15 29
6 67 -19 163 -5 234 34 117 64 174 173 166 317 -13 217 -196 363 -403 321
-127 -26 -231 -106 -283 -218 -22 -48 -27 -71 -27 -147 0 -152 49 -286 150
-408 101 -122 214 -196 370 -243 75 -22 110 -26 210 -27 104 0 130 3 193 26
255 89 437 328 507 666 17 81 35 343 35 514 l0 107 1068 0 1068 0 17 30 18 30
-1085 0 -1086 0 0 29 c0 25 7 31 70 59 257 113 452 361 506 640 8 40 14 89 14
108 l0 34 1014 0 1014 0 6 23 c3 12 6 25 6 30 0 4 -459 7 -1020 7 l-1020 0 0
34 c0 54 -26 174 -55 256 -95 264 -291 458 -559 551 l-81 29 1448 0 1447 0 0
30 0 30 -1558 0 -1558 0 -64 208 c-137 446 -159 525 -153 536 4 6 29 39 57 74
l50 62 1568 0 c862 0 1568 2 1568 4 0 3 -4 16 -10 30 l-10 26 -1536 0 c-1500
0 -1536 0 -1523 19 207 282 363 584 409 794 l13 57 1139 0 1139 0 -16 30 -16
30 -1115 0 -1115 0 8 68 c12 105 7 308 -11 409 -50 281 -180 603 -344 848 -85
128 -169 225 -193 225 -8 -1 -35 -20 -61 -43z m291 -547 c23 -49 50 -125 61
-167 49 -197 33 -465 -42 -720 l-21 -73 -295 0 -295 0 6 113 c12 231 78 427
207 617 79 115 287 320 326 320 6 0 30 -40 53 -90z m-39 -1044 c-20 -54 -112
-227 -165 -311 -71 -113 -216 -315 -225 -315 -20 0 -150 549 -150 633 0 16 20
17 275 17 l275 0 -10 -24z m-351 -1228 c18 -58 148 -502 155 -530 l6 -28 -311
0 -311 0 21 33 c94 149 402 557 421 557 4 0 13 -15 19 -32z m58 -638 c-73 -23
-179 -86 -245 -145 -122 -109 -202 -269 -221 -439 -8 -70 0 -201 14 -247 6
-18 -1 -19 -175 -19 l-182 0 7 98 c3 53 13 138 21 187 25 150 117 401 200 543
l25 42 307 -1 307 0 -58 -19z m223 -335 c0 -3 18 -87 41 -188 22 -100 45 -207
50 -237 6 -30 12 -63 15 -72 5 -17 -13 -18 -284 -18 l-289 0 -7 31 c-39 199
113 411 340 474 49 13 134 20 134 10z m257 -20 c198 -62 358 -213 433 -406 16
-43 30 -81 30 -84 0 -3 -105 -5 -234 -5 l-235 0 -11 58 c-6 31 -29 139 -51
240 -21 100 -39 191 -39 202 0 26 13 25 107 -5z m-877 -617 c73 -144 231 -287
373 -339 45 -16 84 -1 93 36 11 44 -3 69 -58 100 -68 40 -176 148 -211 213
l-28 52 284 0 285 0 6 -24 c20 -79 92 -674 82 -683 -8 -8 -155 -23 -237 -23
-391 -1 -767 217 -927 535 -29 58 -62 155 -62 182 0 10 38 13 184 13 l185 0
31 -62z m1356 27 c8 -45 -3 -154 -22 -225 -34 -120 -125 -260 -211 -323 -52
-38 -144 -89 -150 -83 -2 2 -12 82 -23 177 -20 181 -56 441 -66 472 -5 16 10
17 230 17 l235 0 7 -35z m-516 -825 c0 -6 -30 -9 -72 -8 -67 1 -69 2 -28 8 70
11 100 11 100 0z"/>
</g>
</svg>
